{"title":"The Purge Anarchy 2014 NEW SOURCE HDCAM V1 x264 Pimp4003","uid":10654820,"size":1246916835,"categoryP":"video","categoryS":"movies","magnet":"?xt=urn:btih:5dfa3ec9a6c1c193d001e86ed0408b06b5a6df4d&amp;dn=The+Purge+Anarchy+2014+NEW+SOURCE+HDCAM+V1+x264+Pimp4003&amp;tr=udp%3A%2F%2Ftracker.openbittorrent.com%3A80&amp;tr=udp%3A%2F%2Fopen.demonii.com%3A1337&amp;tr=udp%3A%2F%2Ftracker.coppersurfer.tk%3A6969&amp;tr=udp%3A%2F%2Fexodus.desync.com%3A6969","seeders":4,"leechers":0,"uploader":"shawnmurthy","files":-1,"time":1406656923,"description":"[color=red][b]...SOURCE IS SPECTRE....I WAS GOING TO USE THE OTHER SOURCE THAT WAS UPLOADED COUPLE DAYS AGO BUT THAT WAS SO DARK...SO I WAITED AND SPECTRE GAVE ME A NEW SOURCE....THIS IS DARK TOO BUT NOT THAT MUCH DARK LIKE THE OTHER ONE....I PRETTY MUCH BRIGHTENED THE ENTIRE VIDEO SO THE DARK SCENES ARE A LOT BETTER AND YOU CAN WATCH THEM....AUDIO IS GOOD JUST STOPPED ECHO...........ENJOY...PIMP4003 OUT[/b][/color]\n\nSOURCE VIDEO - SPECTRE\n\n[IMG]http://i.imgur.com/Q7K4oJu.png[/IMG]\n\n[IMG]http://i.imgur.com/69uL5sU.jpg[/IMG]\n\n[URL=http://istoreimg.com/i/53d7bd49c76f5.html][IMG]http://istoreimg.com/upload/small/2014/07/30/53d7bd49c76ba.jpg[/IMG][/URL]\n\n[color=blue][b]REQUESTS, SCREENSHOTS, VIDEO INFO, SAMPLE AND FOR EXCLUSIVE RELEASES VISIT BELOW LINK[/b][/color]\n\nThe Purge Anarchy 2014 NEW SOURCE HDCAM V1 x264 Pimp4003\n\nENJOY\n\nPIMP4003\n\nVideo\nID                                       : 2\nFormat                                   : AVC\nFormat/Info                              : Advanced Video Codec\nFormat profile                           : &lt;a class=&quot;__cf_email__&quot; href=&quot;/cdn-cgi/l/email-protection&quot; data-cfemail=&quot;ce8cafbdaba2a7a0ab8e82fde0fe&quot;&gt;[email&amp;#160;protected]&lt;/a&gt;&lt;script cf-hash='f9e31' type=&quot;text/javascript&quot;&gt;\n/* &lt;![CDATA[ */!function(){try{var t=&quot;currentScript&quot;in document?document.currentScript:function(){for(var t=document.getElementsByTagName(&quot;script&quot;),e=t.length;e--;)if(t[e].getAttribute(&quot;cf-hash&quot;))return t[e]}();if(t&amp;&amp;t.previousSibling){var e,r,n,i,c=t.previousSibling,a=c.getAttribute(&quot;data-cfemail&quot;);if(a){for(e=&quot;&quot;,r=parseInt(a.substr(0,2),16),n=2;a.length-n;n+=2)i=parseInt(a.substr(n,2),16)^r,e+=String.fromCharCode(i);e=document.createTextNode(e),c.parentNode.replaceChild(e,c)}}}catch(u){}}();/* ]]&gt; */&lt;/script&gt;\nFormat settings, CABAC                   : No\nFormat settings, ReFrames                : 1 frame\nFormat settings, GOP                     : M=1, N=25\nMuxing mode                              : Container profile=&lt;a class=&quot;__cf_email__&quot; href=&quot;/cdn-cgi/l/email-protection&quot; data-cfemail=&quot;ce8cafbdaba2a7a0ab8efae0ff&quot;&gt;[email&amp;#160;protected]&lt;/a&gt;&lt;script cf-hash='f9e31' type=&quot;text/javascript&quot;&gt;\n/* &lt;![CDATA[ */!function(){try{var t=&quot;currentScript&quot;in document?document.currentScript:function(){for(var t=document.getElementsByTagName(&quot;script&quot;),e=t.length;e--;)if(t[e].getAttribute(&quot;cf-hash&quot;))return t[e]}();if(t&amp;&amp;t.previousSibling){var e,r,n,i,c=t.previousSibling,a=c.getAttribute(&quot;data-cfemail&quot;);if(a){for(e=&quot;&quot;,r=parseInt(a.substr(0,2),16),n=2;a.length-n;n+=2)i=parseInt(a.substr(n,2),16)^r,e+=String.fromCharCode(i);e=document.createTextNode(e),c.parentNode.replaceChild(e,c)}}}catch(u){}}();/* ]]&gt; */&lt;/script&gt;\nCodec ID                                 : avc1\nCodec ID/Info                            : Advanced Video Coding\nDuration                                 : 1h 35mn\nBit rate                                 : 1 566 Kbps\nWidth                                    : 640 pixels\nHeight                                   : 360 pixels\nDisplay aspect ratio                     : 16:9\nFrame rate mode                          : Constant\nFrame rate                               : 23.976 fps\nOriginal frame rate                      : 23.000 fps\nColor space                              : YUV\nChroma subsampling                       : 4:2:0\nBit depth                                : 8 bits\nScan type                                : Progressive\nBits/(Pixel*Frame)                       : 0.283\nStream size                              : 1.05 GiB (90%)\nWriting library                          : \nLanguage                                 : English\n\nAudio\nID                                       : 1\nFormat                                   : AAC\nFormat/Info                              : Advanced Audio Codec\nFormat profile                           : LC\nCodec ID                                 : 40\nDuration                                 : 1h 35mn\nBit rate mode                            : Constant\nBit rate                                 : 165 Kbps\nChannel(s)                               : 2 channels\nChannel positions                        : Front: L R\nSampling rate                            : 48.0 KHz\nCompression mode                         : Lossy\nStream size                              : 113 MiB (10%)\nLanguage                                 : English\n","torrent":{"xt":"urn:btih:5dfa3ec9a6c1c193d001e86ed0408b06b5a6df4d","amp;dn":"The+Purge+Anarchy+2014+NEW+SOURCE+HDCAM+V1+x264+Pimp4003","amp;tr":["udp%3A%2F%2Ftracker.openbittorrent.com%3A80","udp%3A%2F%2Fopen.demonii.com%3A1337","udp%3A%2F%2Ftracker.coppersurfer.tk%3A6969","udp%3A%2F%2Fexodus.desync.com%3A6969"],"infoHash":"5dfa3ec9a6c1c193d001e86ed0408b06b5a6df4d","infoHashBuffer":{"type":"Buffer","data":[93,250,62,201,166,193,193,147,208,1,232,110,208,64,139,6,181,166,223,77]},"announce":[],"urlList":[]}}